<svg width="148" height="37" viewBox="0 0 148 37" fill="none" xmlns="http://www.w3.org/2000/svg">
<rect width="148" height="37" rx="3" fill="#54A1CB"/>
<path fill-rule="evenodd" clip-rule="evenodd" d="M29.7615 6H24.0126V21.4523H29.7615V6ZM19.6747 8.54951L19.679 8.54375L21.8191 8.51203V13.7643L16.846 20.3687L14.7848 23.1365L21.7975 23.1556V28.5727H9.59223L8.65723 28.6076V23.127L15.7716 13.7138L8.71129 13.7199L10.0414 8.5755L19.6747 8.54951ZM24.0126 23.1427L36.5694 23.1268L38.9143 28.4837L24.0126 28.5313V23.1427Z" fill="#FB0000"/>
<path fill-rule="evenodd" clip-rule="evenodd" d="M29.7615 6H24.0126V21.4523H29.7615V6ZM19.6747 8.54951L19.679 8.54375L21.8191 8.51203V13.7643L16.846 20.3687L14.7848 23.1365L21.7975 23.1556V28.5727H9.59223L8.65723 28.6076V23.127L15.7716 13.7138L8.71129 13.7199L10.0414 8.5755L19.6747 8.54951ZM24.0126 23.1427L36.5694 23.1268L38.9143 28.4837L24.0126 28.5313V23.1427Z" fill="white"/>
<path d="M46.1816 27.1243V24.8885L50.1946 12.9608H46.3382V10.459H53.8161V12.4978L49.6955 24.6324H53.8553V27.1243H46.1816Z" fill="white"/>
<path d="M58.8945 27.1243V10.459H66.3333V12.9706H62.5454V17.0877H65.4328V19.6485H62.5454V24.6225H66.3724V27.1144H58.8945V27.1243Z" fill="white"/>
<path d="M71.3066 27.1243V10.459H75.8188C76.5138 10.459 77.1402 10.4984 77.6785 10.5772C78.2168 10.656 78.7258 10.7939 79.1956 11.0007C79.6654 11.2075 80.057 11.4636 80.3604 11.7985C80.6638 12.1334 80.9085 12.5471 81.0749 13.0691C81.2511 13.5813 81.3392 14.1919 81.3392 14.8814C81.3392 15.9747 81.1923 16.8513 80.8987 17.5112C80.6051 18.1711 80.0765 18.6932 79.3131 19.0576L81.5936 27.1342H77.8058L75.9852 19.6781H74.9575V27.1342H71.3066V27.1243ZM74.9575 17.5408H75.8971C76.641 17.5408 77.1696 17.3438 77.473 16.9596C77.7764 16.5755 77.933 15.9845 77.933 15.1966C77.933 14.4283 77.796 13.8571 77.5219 13.4828C77.2479 13.1085 76.7682 12.9214 76.0929 12.9214H74.9673V17.5408H74.9575Z" fill="white"/>
<path d="M91.5572 27.3508C90.6371 27.3508 89.8541 27.2326 89.2081 26.9864C88.5621 26.7401 88.0434 26.3757 87.6616 25.8931C87.2799 25.4105 87.0059 24.8392 86.8297 24.1793C86.6535 23.5194 86.5752 22.7511 86.5752 21.8548V15.7087C86.5752 14.8124 86.6633 14.0343 86.8297 13.3842C86.9961 12.7342 87.2799 12.1629 87.6616 11.6803C88.0434 11.1977 88.5621 10.8332 89.2081 10.5968C89.8541 10.3506 90.6371 10.2324 91.5572 10.2324C93.3484 10.2324 94.6306 10.6953 95.4038 11.6113C96.1771 12.5372 96.5686 13.8964 96.5686 15.7087V21.8646C96.5686 23.6769 96.1771 25.046 95.4038 25.9719C94.6306 26.8879 93.3484 27.3508 91.5572 27.3508ZM90.9895 24.6323C91.1461 24.7111 91.3321 24.7505 91.5572 24.7505C91.7725 24.7505 91.9683 24.7111 92.1249 24.6323C92.2815 24.5535 92.4087 24.4551 92.4968 24.3369C92.5849 24.2187 92.6534 24.0709 92.7024 23.8838C92.7513 23.6967 92.7807 23.5194 92.8002 23.3519C92.81 23.1845 92.8198 22.9875 92.8198 22.761V14.773C92.8198 14.5563 92.81 14.3593 92.8002 14.1919C92.7905 14.0245 92.7513 13.857 92.7024 13.6699C92.6534 13.4827 92.5849 13.335 92.4968 13.2267C92.4087 13.1085 92.2913 13.0198 92.1249 12.941C91.9683 12.8622 91.7725 12.8228 91.5572 12.8228C91.3419 12.8228 91.1461 12.8622 90.9895 12.941C90.8329 13.0198 90.7154 13.1085 90.6274 13.2267C90.5393 13.335 90.4707 13.4926 90.4316 13.6797C90.3827 13.8669 90.3533 14.0442 90.3435 14.2018C90.3337 14.3593 90.3239 14.5465 90.3239 14.7829V22.7708C90.3239 23.0072 90.3239 23.2042 90.3435 23.3618C90.3533 23.5194 90.3827 23.6967 90.4316 23.8838C90.4805 24.0709 90.5491 24.2285 90.6274 24.3369C90.7154 24.4551 90.8329 24.5535 90.9895 24.6323Z" fill="white"/>
<path d="M102.042 27.1243V10.459H105.703V24.6324H109.5V27.1243H102.042Z" fill="white"/>
<path d="M113.58 27.1243L116.722 10.459H120.852L123.965 27.1243H120.588L120.02 23.5883H117.603L117.045 27.1243H113.58ZM117.926 21.3821H119.697L118.807 14.9306L117.926 21.3821Z" fill="white"/>
<path d="M128.898 27.1243V10.459H133.215C133.831 10.459 134.389 10.4885 134.869 10.5575C135.349 10.6264 135.828 10.7446 136.308 10.9318C136.787 11.1189 137.179 11.3651 137.482 11.6803C137.786 11.9955 138.04 12.419 138.226 12.9509C138.402 13.4434 138.481 14.0245 138.481 14.6746C138.481 14.7238 138.481 14.7731 138.481 14.8124C138.451 16.7528 137.649 17.8756 136.053 18.1613C137.003 18.2893 137.727 18.6931 138.226 19.3629C138.725 20.0425 138.98 20.9782 138.999 22.17C138.999 22.2094 138.999 22.2488 138.999 22.2783C138.99 23.9035 138.569 25.115 137.727 25.903C136.866 26.7106 135.613 27.1046 133.988 27.1046H128.898V27.1243ZM132.549 17.1271H133.244C134.027 17.1271 134.566 16.9498 134.849 16.5952C135.133 16.2406 135.27 15.6792 135.27 14.9109C135.27 13.601 134.556 12.9411 133.127 12.9411H132.549V17.1271ZM132.549 24.5536H133.323C134.115 24.5536 134.673 24.3566 134.996 23.9725C135.319 23.5883 135.476 22.9678 135.476 22.1306C135.476 21.1949 135.309 20.5251 134.986 20.141C134.663 19.7569 134.086 19.5599 133.274 19.5599H132.559V24.5536H132.549Z" fill="white"/>
</svg>
