<svg width="127" height="134" viewBox="0 0 127 134" fill="none" xmlns="http://www.w3.org/2000/svg">
  <path d="M54.7209 10.5938L5.76174 10.7258L0.222656 32.15L30.5826 32.1236L0.222656 71.4452V94.0052H54.7209V71.4452L25.516 71.3659L54.7209 32.15V10.5938Z" fill="white"/>
  <path d="M45.9009 10.592L0 71.3246V94.1488L8.50551 93.8318L54.8133 32.3332V10.46L45.9009 10.592Z" fill="white"/>
  <path d="M87.8907 0H63.9492V64.3516H87.8907V0Z" fill="white"/>
  <path d="M116.242 71.3262L63.9492 71.3922V93.8334L126.008 93.6353L116.242 71.3262Z" fill="white"/>
  <path d="M0.0527344 133.234V130.236L5.4343 114.241H0.262749V110.886H10.2908V113.62L4.76489 129.893H10.3433V133.234H0.0527344Z" fill="white"/>
  <path d="M17.1016 133.234V110.886H27.0772V114.254H21.9975V119.775H25.8696V123.209H21.9975V129.88H27.1297V133.221H17.1016V133.234Z" fill="white"/>
  <path d="M33.7471 133.234V110.886H39.7981C40.73 110.886 41.57 110.939 42.292 111.044C43.0139 111.15 43.6964 111.335 44.3265 111.612C44.9565 111.89 45.4815 112.233 45.8884 112.682C46.2953 113.131 46.6235 113.686 46.8466 114.386C47.0829 115.073 47.201 115.892 47.201 116.816C47.201 118.282 47.0041 119.458 46.6103 120.343C46.2166 121.228 45.5078 121.928 44.484 122.417L47.5423 133.248H42.4626L40.0212 123.249H38.643V133.248H33.7471V133.234ZM38.643 120.383H39.9031C40.9006 120.383 41.6094 120.118 42.0163 119.603C42.4232 119.088 42.6332 118.296 42.6332 117.239C42.6332 116.209 42.4495 115.443 42.0819 114.941C41.7144 114.439 41.0713 114.188 40.1656 114.188H38.6561V120.383H38.643Z" fill="white"/>
  <path d="M60.9037 133.538C59.6699 133.538 58.6198 133.38 57.7535 133.05C56.8872 132.719 56.1915 132.231 55.6796 131.583C55.1677 130.936 54.8002 130.17 54.5639 129.285C54.3277 128.4 54.2227 127.37 54.2227 126.168V117.926C54.2227 116.724 54.3408 115.68 54.5639 114.809C54.7871 113.937 55.1677 113.171 55.6796 112.524C56.1915 111.876 56.8872 111.388 57.7535 111.071C58.6198 110.741 59.6699 110.582 60.9037 110.582C63.3057 110.582 65.0252 111.203 66.0621 112.431C67.0991 113.673 67.6241 115.496 67.6241 117.926V126.181C67.6241 128.612 67.0991 130.448 66.0621 131.689C65.0252 132.918 63.3057 133.538 60.9037 133.538ZM60.1424 129.893C60.3524 129.998 60.6018 130.051 60.9037 130.051C61.1924 130.051 61.455 129.998 61.665 129.893C61.875 129.787 62.0456 129.655 62.1638 129.497C62.2819 129.338 62.3738 129.14 62.4394 128.889C62.505 128.638 62.5444 128.4 62.5707 128.176C62.5838 127.951 62.5969 127.687 62.5969 127.383V116.671C62.5969 116.381 62.5838 116.116 62.5707 115.892C62.5575 115.667 62.505 115.443 62.4394 115.192C62.3738 114.941 62.2819 114.743 62.1638 114.597C62.0456 114.439 61.8881 114.32 61.665 114.214C61.455 114.109 61.1924 114.056 60.9037 114.056C60.6149 114.056 60.3524 114.109 60.1424 114.214C59.9324 114.32 59.7749 114.439 59.6567 114.597C59.5386 114.743 59.4467 114.954 59.3942 115.205C59.3286 115.456 59.2892 115.694 59.2761 115.905C59.263 116.116 59.2498 116.367 59.2498 116.684V127.396C59.2498 127.713 59.2498 127.978 59.2761 128.189C59.2892 128.4 59.3286 128.638 59.3942 128.889C59.4598 129.14 59.5517 129.351 59.6567 129.497C59.7749 129.655 59.9324 129.787 60.1424 129.893Z" fill="white"/>
  <path d="M74.9619 133.234V110.886H79.8709V129.893H84.9637V133.234H74.9619Z" fill="white"/>
  <path d="M90.4375 133.234L94.6509 110.886H100.19L104.364 133.234H99.8356L99.0743 128.493H95.8322L95.084 133.234H90.4375ZM96.2654 125.534H98.6411L97.4467 116.882L96.2654 125.534Z" fill="white"/>
  <path d="M110.979 133.234V110.886H116.768C117.595 110.886 118.343 110.925 118.986 111.018C119.629 111.11 120.273 111.269 120.916 111.52C121.559 111.771 122.084 112.101 122.491 112.524C122.898 112.946 123.239 113.514 123.488 114.227C123.725 114.888 123.83 115.667 123.83 116.539C123.83 116.605 123.83 116.671 123.83 116.724C123.79 119.326 122.714 120.832 120.574 121.215C121.848 121.386 122.819 121.928 123.488 122.826C124.158 123.738 124.499 124.992 124.525 126.591C124.525 126.643 124.525 126.696 124.525 126.736C124.512 128.915 123.948 130.54 122.819 131.597C121.664 132.68 119.984 133.208 117.805 133.208H110.979V133.234ZM115.875 119.828H116.807C117.857 119.828 118.579 119.59 118.96 119.115C119.341 118.639 119.524 117.886 119.524 116.856C119.524 115.099 118.566 114.214 116.65 114.214H115.875V119.828ZM115.875 129.787H116.912C117.976 129.787 118.724 129.523 119.157 129.008C119.59 128.493 119.8 127.66 119.8 126.538C119.8 125.283 119.577 124.385 119.144 123.87C118.711 123.355 117.936 123.09 116.847 123.09H115.889V129.787H115.875Z" fill="white"/>
</svg>
